<mxfile host="app.diagrams.net" modified="2023-07-29T20:32:03.880Z" agent="Mozilla/5.0 (Windows NT 10.0; Win64; x64) AppleWebKit/537.36 (KHTML, like Gecko) Chrome/115.0.0.0 Safari/537.36" version="21.6.6" etag="JFW_eH0fMSKlqahpHLFk" type="device">
  <diagram id="C5RBs43oDa-KdzZeNtuy" name="Page-1">
    <mxGraphModel dx="1509" dy="832" grid="0" gridSize="10" guides="1" tooltips="1" connect="1" arrows="1" fold="1" page="1" pageScale="1" pageWidth="1169" pageHeight="827" background="#ffffff" math="0" shadow="0">
      <root>
        <mxCell id="WIyWlLk6GJQsqaUBKTNV-0" />
        <mxCell id="WIyWlLk6GJQsqaUBKTNV-1" parent="WIyWlLk6GJQsqaUBKTNV-0" />
        <mxCell id="zkfFHV4jXpPFQw0GAbJ--0" value="Building" style="swimlane;fontStyle=1;align=center;verticalAlign=top;childLayout=stackLayout;horizontal=1;startSize=26;horizontalStack=0;resizeParent=1;resizeLast=0;collapsible=1;marginBottom=0;rounded=0;shadow=0;strokeWidth=1;" parent="WIyWlLk6GJQsqaUBKTNV-1" vertex="1">
          <mxGeometry x="334" y="256" width="160" height="65" as="geometry">
            <mxRectangle x="230" y="140" width="160" height="26" as="alternateBounds" />
          </mxGeometry>
        </mxCell>
        <mxCell id="zkfFHV4jXpPFQw0GAbJ--1" value="- floorNum: int = 12" style="text;align=left;verticalAlign=top;spacingLeft=4;spacingRight=4;overflow=hidden;rotatable=0;points=[[0,0.5],[1,0.5]];portConstraint=eastwest;" parent="zkfFHV4jXpPFQw0GAbJ--0" vertex="1">
          <mxGeometry y="26" width="160" height="26" as="geometry" />
        </mxCell>
        <mxCell id="zkfFHV4jXpPFQw0GAbJ--4" value="" style="line;html=1;strokeWidth=1;align=left;verticalAlign=middle;spacingTop=-1;spacingLeft=3;spacingRight=3;rotatable=0;labelPosition=right;points=[];portConstraint=eastwest;" parent="zkfFHV4jXpPFQw0GAbJ--0" vertex="1">
          <mxGeometry y="52" width="160" height="8" as="geometry" />
        </mxCell>
        <mxCell id="Em5BjecSM7SIT09PltgR-0" value="&lt;b&gt;&lt;font style=&quot;font-size: 25px;&quot;&gt;Elevator Simulation System&lt;/font&gt;&lt;/b&gt;" style="text;html=1;align=center;verticalAlign=middle;resizable=0;points=[];autosize=1;strokeColor=none;fillColor=none;" vertex="1" parent="WIyWlLk6GJQsqaUBKTNV-1">
          <mxGeometry x="248" y="51" width="347" height="42" as="geometry" />
        </mxCell>
        <mxCell id="Em5BjecSM7SIT09PltgR-1" value="Elevator" style="swimlane;fontStyle=1;align=center;verticalAlign=top;childLayout=stackLayout;horizontal=1;startSize=26;horizontalStack=0;resizeParent=1;resizeLast=0;collapsible=1;marginBottom=0;rounded=0;shadow=0;strokeWidth=1;" vertex="1" parent="WIyWlLk6GJQsqaUBKTNV-1">
          <mxGeometry x="152" y="384" width="160" height="138" as="geometry">
            <mxRectangle x="230" y="140" width="160" height="26" as="alternateBounds" />
          </mxGeometry>
        </mxCell>
        <mxCell id="Em5BjecSM7SIT09PltgR-2" value="- capacity: int = 6" style="text;align=left;verticalAlign=top;spacingLeft=4;spacingRight=4;overflow=hidden;rotatable=0;points=[[0,0.5],[1,0.5]];portConstraint=eastwest;" vertex="1" parent="Em5BjecSM7SIT09PltgR-1">
          <mxGeometry y="26" width="160" height="26" as="geometry" />
        </mxCell>
        <mxCell id="Em5BjecSM7SIT09PltgR-15" value="- controlPanel: ControlPanle" style="text;align=left;verticalAlign=top;spacingLeft=4;spacingRight=4;overflow=hidden;rotatable=0;points=[[0,0.5],[1,0.5]];portConstraint=eastwest;" vertex="1" parent="Em5BjecSM7SIT09PltgR-1">
          <mxGeometry y="52" width="160" height="26" as="geometry" />
        </mxCell>
        <mxCell id="Em5BjecSM7SIT09PltgR-5" value="" style="line;html=1;strokeWidth=1;align=left;verticalAlign=middle;spacingTop=-1;spacingLeft=3;spacingRight=3;rotatable=0;labelPosition=right;points=[];portConstraint=eastwest;" vertex="1" parent="Em5BjecSM7SIT09PltgR-1">
          <mxGeometry y="78" width="160" height="8" as="geometry" />
        </mxCell>
        <mxCell id="Em5BjecSM7SIT09PltgR-3" value="door(): boolean" style="text;align=left;verticalAlign=top;spacingLeft=4;spacingRight=4;overflow=hidden;rotatable=0;points=[[0,0.5],[1,0.5]];portConstraint=eastwest;rounded=0;shadow=0;html=0;" vertex="1" parent="Em5BjecSM7SIT09PltgR-1">
          <mxGeometry y="86" width="160" height="26" as="geometry" />
        </mxCell>
        <mxCell id="Em5BjecSM7SIT09PltgR-14" value="floorIndicatorLight(): int" style="text;align=left;verticalAlign=top;spacingLeft=4;spacingRight=4;overflow=hidden;rotatable=0;points=[[0,0.5],[1,0.5]];portConstraint=eastwest;rounded=0;shadow=0;html=0;" vertex="1" parent="Em5BjecSM7SIT09PltgR-1">
          <mxGeometry y="112" width="160" height="26" as="geometry" />
        </mxCell>
        <mxCell id="Em5BjecSM7SIT09PltgR-6" value="" style="endArrow=none;html=1;edgeStyle=orthogonalEdgeStyle;rounded=0;exitX=0.5;exitY=0;exitDx=0;exitDy=0;" edge="1" parent="WIyWlLk6GJQsqaUBKTNV-1" source="Em5BjecSM7SIT09PltgR-1">
          <mxGeometry relative="1" as="geometry">
            <mxPoint x="295" y="557" as="sourcePoint" />
            <mxPoint x="398" y="320" as="targetPoint" />
          </mxGeometry>
        </mxCell>
        <mxCell id="Em5BjecSM7SIT09PltgR-7" value="5" style="edgeLabel;resizable=0;html=1;align=left;verticalAlign=bottom;" connectable="0" vertex="1" parent="Em5BjecSM7SIT09PltgR-6">
          <mxGeometry x="-1" relative="1" as="geometry" />
        </mxCell>
        <mxCell id="Em5BjecSM7SIT09PltgR-8" value="1" style="edgeLabel;resizable=0;html=1;align=right;verticalAlign=bottom;" connectable="0" vertex="1" parent="Em5BjecSM7SIT09PltgR-6">
          <mxGeometry x="1" relative="1" as="geometry">
            <mxPoint x="-1" y="21" as="offset" />
          </mxGeometry>
        </mxCell>
        <mxCell id="Em5BjecSM7SIT09PltgR-9" value="ControlPanel" style="swimlane;fontStyle=1;align=center;verticalAlign=top;childLayout=stackLayout;horizontal=1;startSize=26;horizontalStack=0;resizeParent=1;resizeLast=0;collapsible=1;marginBottom=0;rounded=0;shadow=0;strokeWidth=1;" vertex="1" parent="WIyWlLk6GJQsqaUBKTNV-1">
          <mxGeometry x="145" y="578" width="174" height="190" as="geometry">
            <mxRectangle x="230" y="140" width="160" height="26" as="alternateBounds" />
          </mxGeometry>
        </mxCell>
        <mxCell id="Em5BjecSM7SIT09PltgR-13" value="- id: int" style="text;align=left;verticalAlign=top;spacingLeft=4;spacingRight=4;overflow=hidden;rotatable=0;points=[[0,0.5],[1,0.5]];portConstraint=eastwest;" vertex="1" parent="Em5BjecSM7SIT09PltgR-9">
          <mxGeometry y="26" width="174" height="26" as="geometry" />
        </mxCell>
        <mxCell id="Em5BjecSM7SIT09PltgR-10" value="- capacity: int = 6" style="text;align=left;verticalAlign=top;spacingLeft=4;spacingRight=4;overflow=hidden;rotatable=0;points=[[0,0.5],[1,0.5]];portConstraint=eastwest;" vertex="1" parent="Em5BjecSM7SIT09PltgR-9">
          <mxGeometry y="52" width="174" height="26" as="geometry" />
        </mxCell>
        <mxCell id="Em5BjecSM7SIT09PltgR-11" value="" style="line;html=1;strokeWidth=1;align=left;verticalAlign=middle;spacingTop=-1;spacingLeft=3;spacingRight=3;rotatable=0;labelPosition=right;points=[];portConstraint=eastwest;" vertex="1" parent="Em5BjecSM7SIT09PltgR-9">
          <mxGeometry y="78" width="174" height="8" as="geometry" />
        </mxCell>
        <mxCell id="Em5BjecSM7SIT09PltgR-12" value="+ targetButtons(): int" style="text;align=left;verticalAlign=top;spacingLeft=4;spacingRight=4;overflow=hidden;rotatable=0;points=[[0,0.5],[1,0.5]];portConstraint=eastwest;rounded=0;shadow=0;html=0;" vertex="1" parent="Em5BjecSM7SIT09PltgR-9">
          <mxGeometry y="86" width="174" height="26" as="geometry" />
        </mxCell>
        <mxCell id="Em5BjecSM7SIT09PltgR-17" value="+ openDoor(): boolean" style="text;align=left;verticalAlign=top;spacingLeft=4;spacingRight=4;overflow=hidden;rotatable=0;points=[[0,0.5],[1,0.5]];portConstraint=eastwest;rounded=0;shadow=0;html=0;" vertex="1" parent="Em5BjecSM7SIT09PltgR-9">
          <mxGeometry y="112" width="174" height="26" as="geometry" />
        </mxCell>
        <mxCell id="Em5BjecSM7SIT09PltgR-18" value="+ closeDoor(): boolean" style="text;align=left;verticalAlign=top;spacingLeft=4;spacingRight=4;overflow=hidden;rotatable=0;points=[[0,0.5],[1,0.5]];portConstraint=eastwest;rounded=0;shadow=0;html=0;" vertex="1" parent="Em5BjecSM7SIT09PltgR-9">
          <mxGeometry y="138" width="174" height="26" as="geometry" />
        </mxCell>
        <mxCell id="Em5BjecSM7SIT09PltgR-16" value="+ emergencyButton(): boolean" style="text;align=left;verticalAlign=top;spacingLeft=4;spacingRight=4;overflow=hidden;rotatable=0;points=[[0,0.5],[1,0.5]];portConstraint=eastwest;rounded=0;shadow=0;html=0;" vertex="1" parent="Em5BjecSM7SIT09PltgR-9">
          <mxGeometry y="164" width="174" height="26" as="geometry" />
        </mxCell>
        <mxCell id="Em5BjecSM7SIT09PltgR-19" value="" style="endArrow=diamondThin;endFill=1;endSize=15;html=1;rounded=0;entryX=0.5;entryY=1;entryDx=0;entryDy=0;exitX=0.5;exitY=0;exitDx=0;exitDy=0;" edge="1" parent="WIyWlLk6GJQsqaUBKTNV-1" source="Em5BjecSM7SIT09PltgR-9" target="Em5BjecSM7SIT09PltgR-1">
          <mxGeometry width="160" relative="1" as="geometry">
            <mxPoint x="232" y="641" as="sourcePoint" />
            <mxPoint x="331" y="689" as="targetPoint" />
          </mxGeometry>
        </mxCell>
        <mxCell id="Em5BjecSM7SIT09PltgR-20" value="Floor" style="swimlane;fontStyle=1;align=center;verticalAlign=top;childLayout=stackLayout;horizontal=1;startSize=26;horizontalStack=0;resizeParent=1;resizeLast=0;collapsible=1;marginBottom=0;rounded=0;shadow=0;strokeWidth=1;" vertex="1" parent="WIyWlLk6GJQsqaUBKTNV-1">
          <mxGeometry x="445" y="379" width="174" height="164" as="geometry">
            <mxRectangle x="230" y="140" width="160" height="26" as="alternateBounds" />
          </mxGeometry>
        </mxCell>
        <mxCell id="Em5BjecSM7SIT09PltgR-56" value="+ building: Building" style="text;align=left;verticalAlign=top;spacingLeft=4;spacingRight=4;overflow=hidden;rotatable=0;points=[[0,0.5],[1,0.5]];portConstraint=eastwest;" vertex="1" parent="Em5BjecSM7SIT09PltgR-20">
          <mxGeometry y="26" width="174" height="26" as="geometry" />
        </mxCell>
        <mxCell id="Em5BjecSM7SIT09PltgR-21" value="+ floorNumber: int" style="text;align=left;verticalAlign=top;spacingLeft=4;spacingRight=4;overflow=hidden;rotatable=0;points=[[0,0.5],[1,0.5]];portConstraint=eastwest;" vertex="1" parent="Em5BjecSM7SIT09PltgR-20">
          <mxGeometry y="52" width="174" height="26" as="geometry" />
        </mxCell>
        <mxCell id="Em5BjecSM7SIT09PltgR-22" value="+ arrivalBells: list[Bell]" style="text;align=left;verticalAlign=top;spacingLeft=4;spacingRight=4;overflow=hidden;rotatable=0;points=[[0,0.5],[1,0.5]];portConstraint=eastwest;" vertex="1" parent="Em5BjecSM7SIT09PltgR-20">
          <mxGeometry y="78" width="174" height="26" as="geometry" />
        </mxCell>
        <mxCell id="Em5BjecSM7SIT09PltgR-25" value="+ upBotton(): CallButton" style="text;align=left;verticalAlign=top;spacingLeft=4;spacingRight=4;overflow=hidden;rotatable=0;points=[[0,0.5],[1,0.5]];portConstraint=eastwest;rounded=0;shadow=0;html=0;" vertex="1" parent="Em5BjecSM7SIT09PltgR-20">
          <mxGeometry y="104" width="174" height="26" as="geometry" />
        </mxCell>
        <mxCell id="Em5BjecSM7SIT09PltgR-27" value="+ downButton(): CallButton" style="text;align=left;verticalAlign=top;spacingLeft=4;spacingRight=4;overflow=hidden;rotatable=0;points=[[0,0.5],[1,0.5]];portConstraint=eastwest;rounded=0;shadow=0;html=0;" vertex="1" parent="Em5BjecSM7SIT09PltgR-20">
          <mxGeometry y="130" width="174" height="26" as="geometry" />
        </mxCell>
        <mxCell id="Em5BjecSM7SIT09PltgR-23" value="" style="line;html=1;strokeWidth=1;align=left;verticalAlign=middle;spacingTop=-1;spacingLeft=3;spacingRight=3;rotatable=0;labelPosition=right;points=[];portConstraint=eastwest;" vertex="1" parent="Em5BjecSM7SIT09PltgR-20">
          <mxGeometry y="156" width="174" height="8" as="geometry" />
        </mxCell>
        <mxCell id="Em5BjecSM7SIT09PltgR-28" value="CallButton" style="swimlane;fontStyle=1;align=center;verticalAlign=top;childLayout=stackLayout;horizontal=1;startSize=26;horizontalStack=0;resizeParent=1;resizeLast=0;collapsible=1;marginBottom=0;rounded=0;shadow=0;strokeWidth=1;" vertex="1" parent="WIyWlLk6GJQsqaUBKTNV-1">
          <mxGeometry x="574" y="627" width="226" height="65" as="geometry">
            <mxRectangle x="230" y="140" width="160" height="26" as="alternateBounds" />
          </mxGeometry>
        </mxCell>
        <mxCell id="Em5BjecSM7SIT09PltgR-29" value="+ dircetion: enum[DOWN, NONE, UP]" style="text;align=left;verticalAlign=top;spacingLeft=4;spacingRight=4;overflow=hidden;rotatable=0;points=[[0,0.5],[1,0.5]];portConstraint=eastwest;" vertex="1" parent="Em5BjecSM7SIT09PltgR-28">
          <mxGeometry y="26" width="226" height="26" as="geometry" />
        </mxCell>
        <mxCell id="Em5BjecSM7SIT09PltgR-31" value="" style="line;html=1;strokeWidth=1;align=left;verticalAlign=middle;spacingTop=-1;spacingLeft=3;spacingRight=3;rotatable=0;labelPosition=right;points=[];portConstraint=eastwest;" vertex="1" parent="Em5BjecSM7SIT09PltgR-28">
          <mxGeometry y="52" width="226" height="8" as="geometry" />
        </mxCell>
        <mxCell id="Em5BjecSM7SIT09PltgR-36" value="" style="endArrow=diamondThin;endFill=1;endSize=15;html=1;rounded=0;entryX=0.5;entryY=1;entryDx=0;entryDy=0;exitX=0.47;exitY=0.032;exitDx=0;exitDy=0;exitPerimeter=0;" edge="1" parent="WIyWlLk6GJQsqaUBKTNV-1" source="Em5BjecSM7SIT09PltgR-38" target="Em5BjecSM7SIT09PltgR-20">
          <mxGeometry width="160" relative="1" as="geometry">
            <mxPoint x="443" y="657" as="sourcePoint" />
            <mxPoint x="242" y="599" as="targetPoint" />
            <Array as="points">
              <mxPoint x="443" y="620" />
              <mxPoint x="536" y="619" />
            </Array>
          </mxGeometry>
        </mxCell>
        <mxCell id="Em5BjecSM7SIT09PltgR-38" value="Bell" style="swimlane;fontStyle=1;align=center;verticalAlign=top;childLayout=stackLayout;horizontal=1;startSize=26;horizontalStack=0;resizeParent=1;resizeLast=0;collapsible=1;marginBottom=0;rounded=0;shadow=0;strokeWidth=1;" vertex="1" parent="WIyWlLk6GJQsqaUBKTNV-1">
          <mxGeometry x="361" y="660" width="174" height="65" as="geometry">
            <mxRectangle x="230" y="140" width="160" height="26" as="alternateBounds" />
          </mxGeometry>
        </mxCell>
        <mxCell id="Em5BjecSM7SIT09PltgR-40" value="" style="line;html=1;strokeWidth=1;align=left;verticalAlign=middle;spacingTop=-1;spacingLeft=3;spacingRight=3;rotatable=0;labelPosition=right;points=[];portConstraint=eastwest;" vertex="1" parent="Em5BjecSM7SIT09PltgR-38">
          <mxGeometry y="26" width="174" height="8" as="geometry" />
        </mxCell>
        <mxCell id="Em5BjecSM7SIT09PltgR-39" value="+ ring(): void" style="text;align=left;verticalAlign=top;spacingLeft=4;spacingRight=4;overflow=hidden;rotatable=0;points=[[0,0.5],[1,0.5]];portConstraint=eastwest;" vertex="1" parent="Em5BjecSM7SIT09PltgR-38">
          <mxGeometry y="34" width="174" height="26" as="geometry" />
        </mxCell>
        <mxCell id="Em5BjecSM7SIT09PltgR-41" value="" style="endArrow=diamondThin;endFill=1;endSize=15;html=1;rounded=0;exitX=0.5;exitY=0;exitDx=0;exitDy=0;" edge="1" parent="WIyWlLk6GJQsqaUBKTNV-1" source="Em5BjecSM7SIT09PltgR-28">
          <mxGeometry width="160" relative="1" as="geometry">
            <mxPoint x="650" y="604" as="sourcePoint" />
            <mxPoint x="549" y="543" as="targetPoint" />
            <Array as="points">
              <mxPoint x="686" y="586" />
              <mxPoint x="549" y="586" />
            </Array>
          </mxGeometry>
        </mxCell>
        <mxCell id="Em5BjecSM7SIT09PltgR-44" value="" style="endArrow=diamondThin;endFill=1;endSize=15;html=1;rounded=0;exitX=0.479;exitY=0;exitDx=0;exitDy=0;exitPerimeter=0;" edge="1" parent="WIyWlLk6GJQsqaUBKTNV-1" source="Em5BjecSM7SIT09PltgR-20">
          <mxGeometry width="160" relative="1" as="geometry">
            <mxPoint x="526" y="376" as="sourcePoint" />
            <mxPoint x="411" y="321" as="targetPoint" />
            <Array as="points">
              <mxPoint x="528" y="360" />
              <mxPoint x="412" y="360" />
            </Array>
          </mxGeometry>
        </mxCell>
        <mxCell id="Em5BjecSM7SIT09PltgR-45" value="Passenger" style="swimlane;fontStyle=1;align=center;verticalAlign=top;childLayout=stackLayout;horizontal=1;startSize=26;horizontalStack=0;resizeParent=1;resizeLast=0;collapsible=1;marginBottom=0;rounded=0;shadow=0;strokeWidth=1;" vertex="1" parent="WIyWlLk6GJQsqaUBKTNV-1">
          <mxGeometry x="606" y="256" width="174" height="115" as="geometry">
            <mxRectangle x="230" y="140" width="160" height="26" as="alternateBounds" />
          </mxGeometry>
        </mxCell>
        <mxCell id="Em5BjecSM7SIT09PltgR-46" value="+ currentFloorNo: int" style="text;align=left;verticalAlign=top;spacingLeft=4;spacingRight=4;overflow=hidden;rotatable=0;points=[[0,0.5],[1,0.5]];portConstraint=eastwest;" vertex="1" parent="Em5BjecSM7SIT09PltgR-45">
          <mxGeometry y="26" width="174" height="26" as="geometry" />
        </mxCell>
        <mxCell id="Em5BjecSM7SIT09PltgR-47" value="+ targetFloorNo: int[]" style="text;align=left;verticalAlign=top;spacingLeft=4;spacingRight=4;overflow=hidden;rotatable=0;points=[[0,0.5],[1,0.5]];portConstraint=eastwest;" vertex="1" parent="Em5BjecSM7SIT09PltgR-45">
          <mxGeometry y="52" width="174" height="26" as="geometry" />
        </mxCell>
        <mxCell id="Em5BjecSM7SIT09PltgR-50" value="" style="line;html=1;strokeWidth=1;align=left;verticalAlign=middle;spacingTop=-1;spacingLeft=3;spacingRight=3;rotatable=0;labelPosition=right;points=[];portConstraint=eastwest;" vertex="1" parent="Em5BjecSM7SIT09PltgR-45">
          <mxGeometry y="78" width="174" height="8" as="geometry" />
        </mxCell>
        <mxCell id="Em5BjecSM7SIT09PltgR-48" value="+ isMoving(): boolean" style="text;align=left;verticalAlign=top;spacingLeft=4;spacingRight=4;overflow=hidden;rotatable=0;points=[[0,0.5],[1,0.5]];portConstraint=eastwest;rounded=0;shadow=0;html=0;" vertex="1" parent="Em5BjecSM7SIT09PltgR-45">
          <mxGeometry y="86" width="174" height="26" as="geometry" />
        </mxCell>
        <mxCell id="Em5BjecSM7SIT09PltgR-51" value="Simulator" style="swimlane;fontStyle=1;align=center;verticalAlign=top;childLayout=stackLayout;horizontal=1;startSize=26;horizontalStack=0;resizeParent=1;resizeLast=0;collapsible=1;marginBottom=0;rounded=0;shadow=0;strokeWidth=1;" vertex="1" parent="WIyWlLk6GJQsqaUBKTNV-1">
          <mxGeometry x="327" y="107" width="174" height="116" as="geometry">
            <mxRectangle x="230" y="140" width="160" height="26" as="alternateBounds" />
          </mxGeometry>
        </mxCell>
        <mxCell id="Em5BjecSM7SIT09PltgR-52" value="+ passengers: Passenger[]" style="text;align=left;verticalAlign=top;spacingLeft=4;spacingRight=4;overflow=hidden;rotatable=0;points=[[0,0.5],[1,0.5]];portConstraint=eastwest;" vertex="1" parent="Em5BjecSM7SIT09PltgR-51">
          <mxGeometry y="26" width="174" height="26" as="geometry" />
        </mxCell>
        <mxCell id="Em5BjecSM7SIT09PltgR-53" value="+ time: int[]" style="text;align=left;verticalAlign=top;spacingLeft=4;spacingRight=4;overflow=hidden;rotatable=0;points=[[0,0.5],[1,0.5]];portConstraint=eastwest;" vertex="1" parent="Em5BjecSM7SIT09PltgR-51">
          <mxGeometry y="52" width="174" height="26" as="geometry" />
        </mxCell>
        <mxCell id="Em5BjecSM7SIT09PltgR-54" value="" style="line;html=1;strokeWidth=1;align=left;verticalAlign=middle;spacingTop=-1;spacingLeft=3;spacingRight=3;rotatable=0;labelPosition=right;points=[];portConstraint=eastwest;" vertex="1" parent="Em5BjecSM7SIT09PltgR-51">
          <mxGeometry y="78" width="174" height="8" as="geometry" />
        </mxCell>
        <mxCell id="Em5BjecSM7SIT09PltgR-55" value="+ randomFloorCeater(): int" style="text;align=left;verticalAlign=top;spacingLeft=4;spacingRight=4;overflow=hidden;rotatable=0;points=[[0,0.5],[1,0.5]];portConstraint=eastwest;rounded=0;shadow=0;html=0;" vertex="1" parent="Em5BjecSM7SIT09PltgR-51">
          <mxGeometry y="86" width="174" height="26" as="geometry" />
        </mxCell>
        <mxCell id="Em5BjecSM7SIT09PltgR-57" value="" style="endArrow=none;endFill=0;endSize=24;html=1;rounded=0;entryX=0.5;entryY=0;entryDx=0;entryDy=0;exitX=0.5;exitY=1;exitDx=0;exitDy=0;" edge="1" parent="WIyWlLk6GJQsqaUBKTNV-1" source="Em5BjecSM7SIT09PltgR-51" target="zkfFHV4jXpPFQw0GAbJ--0">
          <mxGeometry width="160" relative="1" as="geometry">
            <mxPoint x="407" y="245" as="sourcePoint" />
            <mxPoint x="639" y="300" as="targetPoint" />
          </mxGeometry>
        </mxCell>
        <mxCell id="Em5BjecSM7SIT09PltgR-61" value="" style="endArrow=diamondThin;endFill=1;endSize=15;html=1;rounded=0;entryX=0.989;entryY=0.853;entryDx=0;entryDy=0;entryPerimeter=0;" edge="1" parent="WIyWlLk6GJQsqaUBKTNV-1" target="Em5BjecSM7SIT09PltgR-53">
          <mxGeometry width="160" relative="1" as="geometry">
            <mxPoint x="693" y="254" as="sourcePoint" />
            <mxPoint x="508" y="180" as="targetPoint" />
            <Array as="points">
              <mxPoint x="693" y="180" />
            </Array>
          </mxGeometry>
        </mxCell>
        <mxCell id="Em5BjecSM7SIT09PltgR-62" value="" style="endArrow=none;endFill=0;endSize=24;html=1;rounded=0;entryX=0.535;entryY=0.013;entryDx=0;entryDy=0;entryPerimeter=0;" edge="1" parent="WIyWlLk6GJQsqaUBKTNV-1" target="Em5BjecSM7SIT09PltgR-28">
          <mxGeometry width="160" relative="1" as="geometry">
            <mxPoint x="690" y="370" as="sourcePoint" />
            <mxPoint x="693" y="625" as="targetPoint" />
          </mxGeometry>
        </mxCell>
      </root>
    </mxGraphModel>
  </diagram>
</mxfile>
